<svg width="45" height="40" viewBox="0 0 45 40" fill="none" xmlns="http://www.w3.org/2000/svg">
<path d="M14.9987 36.6663C15.9192 36.6663 16.6654 35.9202 16.6654 34.9997C16.6654 34.0792 15.9192 33.333 14.9987 33.333C14.0782 33.333 13.332 34.0792 13.332 34.9997C13.332 35.9202 14.0782 36.6663 14.9987 36.6663Z" stroke="#DCD9D9" stroke-width="3" stroke-linecap="round" stroke-linejoin="round"/>
<path d="M33.3327 36.6663C34.2532 36.6663 34.9993 35.9202 34.9993 34.9997C34.9993 34.0792 34.2532 33.333 33.3327 33.333C32.4122 33.333 31.666 34.0792 31.666 34.9997C31.666 35.9202 32.4122 36.6663 33.3327 36.6663Z" stroke="#DCD9D9" stroke-width="3" stroke-linecap="round" stroke-linejoin="round"/>
<path d="M1.66602 1.6665H8.33268L12.7993 23.9832C12.9518 24.7505 13.3692 25.4398 13.9786 25.9303C14.588 26.4209 15.3505 26.6815 16.1327 26.6665H32.3327C33.1148 26.6815 33.8774 26.4209 34.4868 25.9303C35.0962 25.4398 35.5136 24.7505 35.666 23.9832L38.3327 9.99984H9.99935" stroke="#DCD9D9" stroke-width="3" stroke-linecap="round" stroke-linejoin="round"/>
<circle cx="40" cy="9" r="5" fill="#E05E5E"/>
<path d="M41.2803 10.5928V11.0029H38.79V10.6455L40.0498 9.24805C40.2744 8.99805 40.4268 8.7998 40.5068 8.65332C40.5869 8.50684 40.627 8.3457 40.627 8.16992C40.627 7.99219 40.5703 7.83887 40.457 7.70996C40.3438 7.58105 40.1963 7.5166 40.0146 7.5166C39.4971 7.5166 39.2383 7.77637 39.2383 8.2959H38.7402L38.7344 8.27832C38.7266 7.94043 38.8389 7.66113 39.0713 7.44043C39.3037 7.21973 39.6182 7.10938 40.0146 7.10938C40.3564 7.10938 40.6299 7.20898 40.835 7.4082C41.042 7.60547 41.1455 7.8623 41.1455 8.17871C41.1455 8.37793 41.0869 8.58105 40.9697 8.78809C40.8545 8.99316 40.6777 9.22461 40.4395 9.48242L39.4287 10.5811L39.4346 10.5928H41.2803Z" fill="white"/>
</svg>
