<svg width="147" height="147" viewBox="0 0 147 147" fill="none" xmlns="http://www.w3.org/2000/svg">
<path d="M73.5 12.25C39.69 12.25 12.25 39.69 12.25 73.5C12.25 107.31 39.69 134.75 73.5 134.75C107.31 134.75 134.75 107.31 134.75 73.5C134.75 39.69 107.31 12.25 73.5 12.25ZM73.5 122.5C46.4888 122.5 24.5 100.511 24.5 73.5C24.5 46.4888 46.4888 24.5 73.5 24.5C100.511 24.5 122.5 46.4888 122.5 73.5C122.5 100.511 100.511 122.5 73.5 122.5ZM101.614 46.4275L61.25 86.7913L45.3862 70.9888L36.75 79.625L61.25 104.125L110.25 55.125L101.614 46.4275Z" fill="#499F42"/>
</svg>
