<svg width="40" height="40" viewBox="0 0 40 40" fill="none" xmlns="http://www.w3.org/2000/svg">
<path d="M1.66602 5H26.666V26.6667H1.66602V5Z" stroke="white" stroke-width="2" stroke-linecap="round" stroke-linejoin="round"/>
<path d="M26.666 13.3335H33.3327L38.3327 18.3335V26.6668H26.666V13.3335Z" stroke="white" stroke-width="2" stroke-linecap="round" stroke-linejoin="round"/>
<path d="M9.16667 34.9998C11.4679 34.9998 13.3333 33.1344 13.3333 30.8332C13.3333 28.532 11.4679 26.6665 9.16667 26.6665C6.86548 26.6665 5 28.532 5 30.8332C5 33.1344 6.86548 34.9998 9.16667 34.9998Z" stroke="white" stroke-width="2" stroke-linecap="round" stroke-linejoin="round"/>
<path d="M30.8327 34.9998C33.1339 34.9998 34.9993 33.1344 34.9993 30.8332C34.9993 28.532 33.1339 26.6665 30.8327 26.6665C28.5315 26.6665 26.666 28.532 26.666 30.8332C26.666 33.1344 28.5315 34.9998 30.8327 34.9998Z" stroke="white" stroke-width="2" stroke-linecap="round" stroke-linejoin="round"/>
</svg>
